<?xml version="1.0" encoding="UTF-8"?>
<svg xmlns="http://www.w3.org/2000/svg" xmlns:xlink="http://www.w3.org/1999/xlink" width="219" height="219" viewBox="0 0 219 219">
  <defs>
    <clipPath id="clip-path">
      <rect id="Rectangle_1881" data-name="Rectangle 1881" width="219" height="219" transform="translate(-11532 -16139)" fill="#fff"></rect>
    </clipPath>
  </defs>
  <g id="Mask_Group_1" data-name="Mask Group 1" transform="translate(11532 16139)" clip-path="url(#clip-path)">
    <g id="Group_10425" data-name="Group 10425" transform="translate(-11368.999 -16194.726) rotate(-27)">
      <path id="Path_21776" data-name="Path 21776" d="M108.89,0A108.89,108.89,0,1,1,0,108.89,108.89,108.89,0,0,1,108.89,0Z" transform="translate(-231.589 13.98)" fill="#690048"></path>
      <g id="Group_9236" data-name="Group 9236" transform="translate(-201.038 25.878)">
        <path id="Path_21637" data-name="Path 21637" d="M-201.689,66.2l8.537,6.845c2.846,2.282,6.5,1.6,8.862-1.352,2.282-2.845,1.882-6.058-.809-8.214l-2.277-1.826-2.8,3.493,2.329,1.867a1.283,1.283,0,0,1,.143,1.942,1.257,1.257,0,0,1-1.907.258l-9.106-7.3A1.254,1.254,0,0,1-198.881,60a1.282,1.282,0,0,1,1.926-.283l2.329,1.867,2.8-3.493-2.278-1.826c-2.664-2.136-5.911-1.85-8.193,1C-204.66,60.208-204.51,63.943-201.689,66.2Z" transform="translate(203.947 -21.576)" fill="#f2735a"></path>
        <path id="Path_21638" data-name="Path 21638" d="M-183.992,62.362c2.209,2.646,5.835,2.643,8.609.327,2.749-2.3,3.4-5.862,1.188-8.509l-7.394-8.855c-2.188-2.622-5.815-2.617-8.563-.323-2.773,2.317-3.424,5.882-1.235,8.5Zm-3.375-14.027a1.077,1.077,0,0,1,1.59.1L-178,57.746a1.081,1.081,0,0,1-.19,1.584,1.107,1.107,0,0,1-1.618-.075l-7.776-9.314A1.106,1.106,0,0,1-187.368,48.336Z" transform="translate(205.131 -22.79)" fill="#f2735a"></path>
        <path id="Path_21639" data-name="Path 21639" d="M-160.686,52.5l-2.155-3.847-4.715,2.642-8.638-15.416-4.454,2.5,10.794,19.262Z" transform="translate(206.399 -23.573)" fill="#f2735a"></path>
        <path id="Path_21640" data-name="Path 21640" d="M-150.261,48.822l-1.478-4.154-5.091,1.812-5.924-16.648-4.81,1.712,7.4,20.8Z" transform="translate(207.776 -24.21)" fill="#f2735a"></path>
        <path id="Path_21641" data-name="Path 21641" d="M-146.609,44.846l2.979-.483.859,3.22,5.041-.818L-145,25.57l-5.827.946-.259,22.416,4.55-.738Zm-.222-11.923,2.136,7.783-1.964.318Z" transform="translate(209.51 -24.658)" fill="#f2735a"></path>
        <path id="Path_21642" data-name="Path 21642" d="M-125.226,42.742l.1-3.347a3.223,3.223,0,0,0-2.348-3.521,3.16,3.16,0,0,0,2.558-3.371l.091-2.949c.092-3.016-2.051-4.508-4.5-4.583l-7.39-.225-.674,22.071,7.39.225C-127.549,47.116-125.318,45.758-125.226,42.742Zm-6.511-13.831,1.26.039c.564.017.885.326.862,1.088l-.1,3.149c-.022.728-.364,1.05-.927,1.032l-1.259-.039Zm.83,14.123-1.26-.039L-132,37.66l1.26.039c.564.017.884.358.862,1.086l-.1,3.215C-130,42.763-130.344,43.051-130.907,43.033Z" transform="translate(210.951 -24.745)" fill="#f2735a"></path>
        <path id="Path_21643" data-name="Path 21643" d="M-118.333,49.209c3.487.813,6.729-.815,7.512-4.173L-108.2,33.8c.776-3.326-1.409-6.22-4.9-7.034-3.52-.821-6.761.806-7.537,4.131l-2.624,11.239C-124.038,45.492-121.853,48.387-118.333,49.209Zm.081-5.6,2.759-11.819a1.107,1.107,0,0,1,1.411-.795,1.08,1.08,0,0,1,.882,1.33l-2.759,11.821a1.08,1.08,0,0,1-1.379.8A1.108,1.108,0,0,1-118.253,43.608Z" transform="translate(212.422 -24.555)" fill="#f2735a"></path>
        <path id="Path_21644" data-name="Path 21644" d="M-106.316,52.733l3.636-7.927,1.056.485a1.181,1.181,0,0,1,.469,1.6l-1.687,3.676c-.622,1.357-1.063,3.27-.339,3.6l3.857,1.769.041-.09a11.521,11.521,0,0,1,.921-3.517l1.688-3.677a3.463,3.463,0,0,0-.728-3.582,3.376,3.376,0,0,0,3.086-1.794l1.6-3.5a4.649,4.649,0,0,0-2.524-6.267l-6.51-2.986-9.21,20.071Zm7.537-16.425,1.145.525c.513.235.659.632.342,1.325l-1.494,3.255c-.317.693-.714.84-1.226.6l-1.145-.526Z" transform="translate(213.733 -24.136)" fill="#f2735a"></path>
        <path id="Path_21645" data-name="Path 21645" d="M-95.971,58.132l2.317-2.419,2.448,1.765-1.671,2.884,4.142,2.987,9.85-20.125-4.788-3.453L-99.709,55.436Zm10.593-11-3.993,7.013-1.615-1.163Z" transform="translate(214.917 -23.164)" fill="#f2735a"></path>
        <path id="Path_21646" data-name="Path 21646" d="M-87.477,65.227l3.568,3.655,12.671-12.373,2.526,2.586,3.132-3.059-8.6-8.8-3.132,3.059,2.5,2.562Z" transform="translate(216.204 -22.378)" fill="#f2735a"></path>
        <path id="Path_21647" data-name="Path 21647" d="M-74.8,80.77l3.734-2.528-3.2-4.722,4.064-2.75,2.081,3.075,3.157-2.138-2.081-3.075,3.788-2.564,3.2,4.722,3.541-2.4-6.058-8.95L-80.854,71.819Z" transform="translate(216.901 -21.094)" fill="#f2735a"></path>
        <path id="Path_21648" data-name="Path 21648" d="M-190.026,162.59l3.671-3.154,3.5,4.073,3.093-2.657-6.827-7.946-16.746,14.389,3.327,3.872,6.89-5.919,2.419,2.816,3.093-2.656Z" transform="translate(204.011 -11.258)" fill="#f2735a"></path>
        <path id="Path_21649" data-name="Path 21649" d="M-173.574,165.453c-2.855-2.217-6.478-2.092-8.573.606l-7.077,9.114c-2.115,2.723-1.34,6.266,1.515,8.482,2.828,2.2,6.452,2.072,8.568-.651l7.077-9.114C-169.969,171.19-170.745,167.649-173.574,165.453Zm-2.418,5.007-7.444,9.586a1.08,1.08,0,0,1-1.588.153,1.108,1.108,0,0,1-.272-1.6l7.445-9.586a1.107,1.107,0,0,1,1.614-.132A1.079,1.079,0,0,1-175.992,170.459Z" transform="translate(205.37 -10.1)" fill="#f2735a"></path>
        <path id="Path_21650" data-name="Path 21650" d="M-160.269,174.153l-6.484-3.042-9.378,19.993,4.622,2.169,3.7-7.895,1.051.493a1.18,1.18,0,0,1,.455,1.6l-1.719,3.662c-.633,1.352-1.09,3.263-.369,3.6l3.843,1.8.042-.091a11.517,11.517,0,0,1,.95-3.509l1.718-3.662a3.463,3.463,0,0,0-.7-3.588,3.376,3.376,0,0,0,3.1-1.768l1.634-3.483A4.647,4.647,0,0,0-160.269,174.153Zm-2.094,4.621-1.521,3.243c-.324.691-.721.832-1.231.595l-1.141-.536,2.422-5.164,1.141.536C-162.183,177.687-162.039,178.083-162.363,178.774Z" transform="translate(206.874 -9.342)" fill="#f2735a"></path>
        <path id="Path_21651" data-name="Path 21651" d="M-143.316,178.578c-3.734-.586-6.9,1.4-7.458,4.97l-1.7,10.808c-.566,3.6,1.842,6.43,5.576,7.016,3.6.567,6.19-1.376,6.724-4.782l.453-2.881-4.421-.7-.463,2.948a1.281,1.281,0,0,1-1.614,1.089,1.255,1.255,0,0,1-1.17-1.526l1.81-11.528A1.255,1.255,0,0,1-144,182.9a1.282,1.282,0,0,1,1.2,1.531l-.463,2.948,4.421.7.453-2.882C-137.851,181.819-139.713,179.144-143.316,178.578Z" transform="translate(209.355 -8.567)" fill="#f2735a"></path>
        <path id="Path_21652" data-name="Path 21652" d="M-127.278,179.548l.628,9.128-2.976.205-.628-9.128-5.093.351,1.516,22.025,5.093-.351-.578-8.4,2.976-.205.579,8.4,5.06-.349-1.516-22.026Z" transform="translate(211.166 -8.491)" fill="#f2735a"></path>
        <path id="Path_21653" data-name="Path 21653" d="M-117.18,177.845l2.687,22.247,4.412-1.331-.513-3.307,2.889-.871,1.273,3.078,4.887-1.472-9.986-20.047Zm6.036,13.829-1.235-8.006,3.139,7.433Z" transform="translate(213.078 -8.812)" fill="#f2735a"></path>
        <path id="Path_21654" data-name="Path 21654" d="M-98.5,170.294l5.611,9.891-2.593-2.15-6.595-5.713L-106,174.548l10.895,19.206,3.922-2.225-5.545-9.777,2.634,2.09,6.718,5.527,3.663-2.077L-94.61,168.086Z" transform="translate(214.255 -9.66)" fill="#f2735a"></path>
        <path id="Path_21655" data-name="Path 21655" d="M-80.528,170.068l2.227,2.411,1.023-.945,1.89,2.045a1.2,1.2,0,0,1-.189,1.8,1.235,1.235,0,0,1-1.808.046l-8.167-8.841a1.165,1.165,0,0,1,.187-1.752,1.137,1.137,0,0,1,1.737-.024l2.182,2.362,3.581-3.308-2.183-2.361c-1.89-2.047-5.537-2.378-8.338.209s-2.879,6.362-.989,8.408l8.145,8.814a5.369,5.369,0,0,0,7.9.243,4.167,4.167,0,0,0,1.2-4.27l1.651.957,2.094-1.935-7.515-8.133Z" transform="translate(215.869 -10.525)" fill="#f2735a"></path>
        <path id="Path_21656" data-name="Path 21656" d="M-64.544,162.054l-4-2.843,2.151-3.025-3.107-2.209L-71.65,157l-3.728-2.65,3.3-4.648-3.485-2.478-6.262,8.808,17.994,12.792,6.262-8.807-3.675-2.612Z" transform="translate(216.799 -11.855)" fill="#f2735a"></path>
        <path id="Path_21657" data-name="Path 21657" d="M-123.662,154.44a8.136,8.136,0,0,0-8.128-8.127,8.135,8.135,0,0,0-8.128,8.127,8.136,8.136,0,0,0,8.128,8.128A8.137,8.137,0,0,0-123.662,154.44Zm-14.045,0a5.923,5.923,0,0,1,5.917-5.916,5.923,5.923,0,0,1,5.917,5.916,5.924,5.924,0,0,1-5.917,5.917A5.924,5.924,0,0,1-137.708,154.44Z" transform="translate(210.685 -11.951)" fill="#f2735a"></path>
        <path id="Path_21658" data-name="Path 21658" d="M-131.79,79.771a8.137,8.137,0,0,0,8.128-8.129,8.136,8.136,0,0,0-8.128-8.127,8.135,8.135,0,0,0-8.128,8.127A8.137,8.137,0,0,0-131.79,79.771Zm0-14.045a5.924,5.924,0,0,1,5.917,5.916,5.925,5.925,0,0,1-5.917,5.919,5.925,5.925,0,0,1-5.917-5.919A5.923,5.923,0,0,1-131.79,65.725Z" transform="translate(210.685 -20.665)" fill="#f2735a"></path>
        <path id="Path_21659" data-name="Path 21659" d="M-95.953,141.866A8.135,8.135,0,0,0-88.9,137.8a8.139,8.139,0,0,0-2.975-11.1,8.141,8.141,0,0,0-11.1,2.975A8.139,8.139,0,0,0-100,140.78,8.072,8.072,0,0,0-95.953,141.866Zm-5.111-11.084a5.921,5.921,0,0,1,5.135-2.958,5.886,5.886,0,0,1,2.949.791,5.925,5.925,0,0,1,2.165,8.084,5.924,5.924,0,0,1-8.083,2.166A5.925,5.925,0,0,1-101.063,130.782Z" transform="translate(214.459 -14.13)" fill="#f2735a"></path>
        <path id="Path_21660" data-name="Path 21660" d="M-169.746,84.492a8.071,8.071,0,0,0-4.936,3.787,8.071,8.071,0,0,0-.811,6.167,8.078,8.078,0,0,0,3.787,4.936,8.087,8.087,0,0,0,4.052,1.092,8.152,8.152,0,0,0,2.115-.281,8.075,8.075,0,0,0,4.936-3.787,8.071,8.071,0,0,0,.811-6.167,8.078,8.078,0,0,0-3.787-4.936A8.067,8.067,0,0,0-169.746,84.492Zm7.227,10.809a5.878,5.878,0,0,1-3.592,2.756,5.872,5.872,0,0,1-4.491-.591,5.877,5.877,0,0,1-2.756-3.593,5.873,5.873,0,0,1,.591-4.489,5.88,5.88,0,0,1,3.592-2.758,5.931,5.931,0,0,1,1.541-.2,5.878,5.878,0,0,1,2.95.8,5.874,5.874,0,0,1,2.756,3.593A5.869,5.869,0,0,1-162.519,95.3Z" transform="translate(206.912 -18.487)" fill="#f2735a"></path>
        <path id="Path_21661" data-name="Path 21661" d="M-88.9,88.278a8.071,8.071,0,0,0-4.936-3.787A8.066,8.066,0,0,0-100,85.3a8.139,8.139,0,0,0-2.975,11.1,8.072,8.072,0,0,0,4.936,3.787,8.152,8.152,0,0,0,2.115.281,8.084,8.084,0,0,0,4.052-1.092A8.139,8.139,0,0,0-88.9,88.278Zm-4.081,9.188a5.882,5.882,0,0,1-4.491.591,5.88,5.88,0,0,1-3.593-2.756A5.924,5.924,0,0,1-98.9,87.218a5.878,5.878,0,0,1,2.95-.8,5.932,5.932,0,0,1,1.541.2,5.88,5.88,0,0,1,3.592,2.758A5.924,5.924,0,0,1-92.98,97.466Z" transform="translate(214.459 -18.487)" fill="#f2735a"></path>
        <path id="Path_21662" data-name="Path 21662" d="M-174.682,137.8a8.135,8.135,0,0,0,7.054,4.062,8.087,8.087,0,0,0,4.05-1.086,8.072,8.072,0,0,0,3.787-4.936,8.071,8.071,0,0,0-.811-6.167,8.14,8.14,0,0,0-11.1-2.975,8.073,8.073,0,0,0-3.787,4.935A8.074,8.074,0,0,0-174.682,137.8Zm1.324-5.6a5.877,5.877,0,0,1,2.756-3.593,5.922,5.922,0,0,1,8.083,2.166,5.871,5.871,0,0,1,.591,4.491,5.88,5.88,0,0,1-2.756,3.593,5.926,5.926,0,0,1-8.083-2.166A5.876,5.876,0,0,1-173.358,132.209Z" transform="translate(206.912 -14.13)" fill="#f2735a"></path>
        <path id="Path_21663" data-name="Path 21663" d="M-162.118,86.393A44.441,44.441,0,0,1-139.313,73.1a1.1,1.1,0,0,0,.829-1.325,1.1,1.1,0,0,0-1.325-.829A46.632,46.632,0,0,0-163.744,84.9a1.106,1.106,0,0,0,.064,1.562,1.1,1.1,0,0,0,.748.292A1.1,1.1,0,0,0-162.118,86.393Z" transform="translate(208.147 -19.885)" fill="#f2735a"></path>
        <path id="Path_21664" data-name="Path 21664" d="M-171.7,99.639a1.106,1.106,0,0,0-1.37.749,46.878,46.878,0,0,0-1.889,13.213,46.872,46.872,0,0,0,2.122,13.983,1.105,1.105,0,0,0,1.054.776,1.1,1.1,0,0,0,.329-.051,1.1,1.1,0,0,0,.726-1.384,44.648,44.648,0,0,1-2.021-13.325,44.683,44.683,0,0,1,1.8-12.591A1.106,1.106,0,0,0-171.7,99.639Z" transform="translate(206.997 -16.868)" fill="#f2735a"></path>
        <path id="Path_21665" data-name="Path 21665" d="M-140.406,154.932a1.126,1.126,0,0,0,.263.031,1.1,1.1,0,0,0,1.072-.843,1.1,1.1,0,0,0-.812-1.335,44.5,44.5,0,0,1-22.051-12.938,1.1,1.1,0,0,0-1.562-.054,1.105,1.105,0,0,0-.055,1.562A46.694,46.694,0,0,0-140.406,154.932Z" transform="translate(208.167 -12.669)" fill="#f2735a"></path>
        <path id="Path_21666" data-name="Path 21666" d="M-123.165,155.075a1.136,1.136,0,0,0,.249-.028,46.671,46.671,0,0,0,23.459-13.405,1.105,1.105,0,0,0-.04-1.562,1.107,1.107,0,0,0-1.564.04,44.468,44.468,0,0,1-22.35,12.773,1.105,1.105,0,0,0-.83,1.324A1.1,1.1,0,0,0-123.165,155.075Z" transform="translate(212.332 -12.639)" fill="#f2735a"></path>
        <path id="Path_21667" data-name="Path 21667" d="M-93.085,127.831a1.13,1.13,0,0,0,.317.046,1.1,1.1,0,0,0,1.058-.789,46.859,46.859,0,0,0,1.951-13.42,46.889,46.889,0,0,0-2.107-13.936,1.108,1.108,0,0,0-1.384-.727,1.106,1.106,0,0,0-.727,1.384,44.643,44.643,0,0,1,2.007,13.279,44.665,44.665,0,0,1-1.858,12.788A1.105,1.105,0,0,0-93.085,127.831Z" transform="translate(215.515 -16.935)" fill="#f2735a"></path>
        <path id="Path_21668" data-name="Path 21668" d="M-122.705,73.268a44.553,44.553,0,0,1,21.141,12.14,1.1,1.1,0,0,0,.79.334,1.107,1.107,0,0,0,.773-.314,1.105,1.105,0,0,0,.018-1.564,46.781,46.781,0,0,0-22.188-12.742,1.106,1.106,0,0,0-1.34.807A1.106,1.106,0,0,0-122.705,73.268Z" transform="translate(212.409 -19.868)" fill="#f2735a"></path>
        <path id="Path_21669" data-name="Path 21669" d="M-129.85,152.347a1.132,1.132,0,0,0,.318.046,1.1,1.1,0,0,0,1.058-.787,154.079,154.079,0,0,1,8.007-19.787,149.81,149.81,0,0,1,21.48,2.785,1.107,1.107,0,0,0,1.257-.69,1.1,1.1,0,0,0-.481-1.349L-115.6,122.523a110.413,110.413,0,0,1,17.62-23.746c.013-.013.018-.032.03-.045a1.163,1.163,0,0,0,.148-.22,1.4,1.4,0,0,0,.072-.132,1.087,1.087,0,0,0,.054-.274,1.137,1.137,0,0,0,.02-.123,1.091,1.091,0,0,0-.065-.337c-.007-.022,0-.046-.013-.069v0a1.092,1.092,0,0,0-.23-.348l-.01-.014a.9.9,0,0,0-.086-.057,1.106,1.106,0,0,0-.242-.162,1.207,1.207,0,0,0-.164-.049A1.061,1.061,0,0,0-98.7,96.9a1.123,1.123,0,0,0-.182.012,1.009,1.009,0,0,0-.153.01,127.342,127.342,0,0,1-36.659,3.866,108.466,108.466,0,0,0,7.242-20.33,1.106,1.106,0,0,0-.852-1.31,1.105,1.105,0,0,0-1.31.851,107.187,107.187,0,0,1-7.454,20.664c-13.471-.839-21.725-3.659-21.868-3.71-.039-.013-.077-.007-.116-.017a1.052,1.052,0,0,0-.225-.03,1.046,1.046,0,0,0-.2.013,1.038,1.038,0,0,0-.214.056.984.984,0,0,0-.178.087,1,1,0,0,0-.171.127,1.01,1.01,0,0,0-.144.162c-.024.033-.059.054-.08.09s-.018.066-.033.1-.04.054-.052.087a1.066,1.066,0,0,0-.017.117,1.065,1.065,0,0,0-.031.22,1.077,1.077,0,0,0,.015.207,1.057,1.057,0,0,0,.052.2,1.065,1.065,0,0,0,.092.189,1.06,1.06,0,0,0,.124.166,1,1,0,0,0,.166.146.848.848,0,0,0,.088.078l18.183,10.5A98.6,98.6,0,0,1-161.05,132.71a1,1,0,0,0-.106.14,1.1,1.1,0,0,0-.111.148,1.053,1.053,0,0,0-.083.232.948.948,0,0,0-.044.155,1.081,1.081,0,0,0,.015.332c0,.027,0,.051,0,.077l0,.008a.8.8,0,0,0,.042.1,1.045,1.045,0,0,0,.125.26c0,.007.006.014.01.022s.033.022.046.038a1.062,1.062,0,0,0,.3.253c.035.02.068.04.106.056a1.079,1.079,0,0,0,.439.1h0c.008,0,.017,0,.024,0a1.1,1.1,0,0,0,.245-.031l.011,0h0c.35-.087,15.671-3.817,37.166-2.9a154.739,154.739,0,0,0-7.737,19.273A1.106,1.106,0,0,0-129.85,152.347Zm25-21.06c-5.051-.81-9.929-1.321-14.565-1.617q1.275-2.55,2.728-5.217Zm-12.667-9.864-9.81-5.664L-104.5,102.58A121.742,121.742,0,0,0-117.512,121.423Zm-19.221-18.445a129.576,129.576,0,0,0,31.138-2.317l-23.937,13.822-10.144-5.857C-138.611,106.7-137.624,104.809-136.733,102.977Zm-16.094-1.943c2.655.529,5.923,1.064,9.761,1.462,1.23.128,2.546.244,3.946.34-.758,1.529-1.583,3.1-2.462,4.688Zm12.056,9.513,9.028,5.211-21.961,12.68A104.7,104.7,0,0,0-140.772,110.547Zm-13.309,20.662,24.548-14.175,10.942,6.318c-1.157,2.11-2.227,4.181-3.214,6.182A159.271,159.271,0,0,0-154.081,131.209Z" transform="translate(208.425 -19.022)" fill="#f2735a"></path>
      </g>
    </g>
  </g>
</svg>
